<?xml version="1.0" encoding="utf-8"?>
<!-- Generator: Adobe Illustrator 21.1.0, SVG Export Plug-In . SVG Version: 6.00 Build 0)  -->
<svg version="1.1" id="Слой_1" xmlns="http://www.w3.org/2000/svg" xmlns:xlink="http://www.w3.org/1999/xlink" x="0px" y="0px"
	 viewBox="0 0 300 300" style="enable-background:new 0 0 300 300;" xml:space="preserve">
<title>Colors-design-pantone-graphic</title>
<path d="M225.4,72H96.7C83.1,72,72,83.1,72,96.7v128.7c0,1.4,1.2,2.6,2.6,2.6h44.2c1.4,0,2.6-1.2,2.6-2.6v-36.5l5.3,9.1l13,22.5
	c0.3,0.6,0.9,1,1.6,1.2c0.2,0.1,0.4,0.1,0.7,0.1c0.5,0,0.9-0.1,1.3-0.3l38.3-22.1c1.2-0.7,1.7-2.3,1-3.6c0,0,0,0,0,0l-13-22.5
	l-5.3-9.1l9.1,5.3l22.5,13c1.2,0.7,2.8,0.3,3.6-1l22.1-38.3c0.7-1.2,0.3-2.8-1-3.6l-22.5-13l-9.1-5.3h36.5c1.4,0,2.6-1.2,2.6-2.6
	V74.6C228,73.2,226.8,72,225.4,72z M150,77.2h20.8v39H150V77.2z M168,121.4l-16.9,29.2l-18-10.4l10.9-18.8H168z M124,77.2h20.8v39
	H124V77.2z M138,121.4l-9.4,16.2l-2-1.2l-16-9.2l3.4-5.8C114,121.4,138,121.4,138,121.4z M99.3,126.7l6.4,3.7l14.4,8.3l-16.2,9.4
	l-1.2-2l0,0l-9.2-16L99.3,126.7z M90.9,125.6l-3.2-5.6l6.5,3.7L90.9,125.6z M100.5,121.4h7.5l-1.9,3.2l-5.5-3.2l0,0L100.5,121.4z
	 M96.7,77.2h22.1v39H96.7c-10.8,0-19.5-8.7-19.5-19.5S85.9,77.2,96.7,77.2z M77.2,112.3l3.7,6.5h-3.7V112.3z M77.2,124h6.7l3.7,6.4
	l3.1,5.3l5.2,9H77.2V124z M77.2,150H99l1.7,3l10.3,17.8H77.2V150z M116.2,222.8h-39V202h39V222.8z M116.2,196.8h-39V176H114l2.2,3.9
	V196.8z M116.9,170.6l-10.4-18l18.8-10.9l3,1.7l17.8,10.3L116.9,170.6z M121.1,177.9L121.1,177.9l-1.6-2.8l17-9.8l14.7-8.5l3.9,2.2
	l8.5,14.7l-16.9,9.8l-16.9,9.8L121.1,177.9z M166.2,178.1l10.4,18l-33.8,19.5l-10.4-18l16.9-9.8L166.2,178.1z M215.7,142.9
	l-19.5,33.8l-18-10.4l9.8-16.9l9.8-16.9L215.7,142.9z M193.1,129.9l-9.8,16.9l-9.8,16.9l-15.3-8.8l0,0l-2.8-1.6l18.4-31.9h4.5
	L193.1,129.9z M196.8,116.2H176v-39h20.8V116.2z M222.8,116.2H202v-39h20.8V116.2z"/>
<path d="M93.4,104.5c4.7,0,8.4-3.8,8.4-8.4c0-4.7-3.8-8.4-8.4-8.4c-4.7,0-8.4,3.8-8.4,8.4C85,100.7,88.8,104.5,93.4,104.5z
	 M93.4,92.8c1.8,0,3.2,1.5,3.2,3.2c0,1.8-1.5,3.2-3.2,3.2c-1.8,0-3.2-1.5-3.2-3.2l0,0C90.2,94.3,91.7,92.8,93.4,92.8z"/>
</svg>
