<?xml version="1.0" encoding="utf-8"?>
<!-- Generator: Adobe Illustrator 21.1.0, SVG Export Plug-In . SVG Version: 6.00 Build 0)  -->
<svg version="1.1"
	 id="Слой_1" xmlns:cc="http://creativecommons.org/ns#" xmlns:dc="http://purl.org/dc/elements/1.1/" xmlns:inkscape="http://www.inkscape.org/namespaces/inkscape" xmlns:rdf="http://www.w3.org/1999/02/22-rdf-syntax-ns#" xmlns:sodipodi="http://sodipodi.sourceforge.net/DTD/sodipodi-0.dtd" xmlns:svg="http://www.w3.org/2000/svg"
	 xmlns="http://www.w3.org/2000/svg" xmlns:xlink="http://www.w3.org/1999/xlink" x="0px" y="0px" viewBox="0 0 300 300"
	 style="enable-background:new 0 0 300 300;" xml:space="preserve">
<g transform="translate(0,-952.36218)">
	<path d="M100.1,1020.4c-0.9,0-2.2,0.5-2.9,1.1l-37.4,35.3c-1.6,1.5-1.6,4.5,0,6l37.4,35.3c1.6,1.5,4.4,1.4,5.9-0.2
		c1.5-1.6,1.4-4.4-0.2-5.9L73.1,1064h108c29.4,0,52,23.9,52,54c0,30.1-22.4,52-52,52H62.7c-2.2,0-4.2,2.2-4.2,4.2c0,2,2,4.2,4.2,4.2
		h118.5c33.8,0,60.3-26,60.3-60.4c0-34.3-26.3-62.3-60.3-62.3h-108l29.8-28.2c1.3-1.2,1.7-3.2,1-4.8
		C103.2,1021.1,101.8,1020.4,100.1,1020.4z"/>
</g>
</svg>
