<svg width="55" height="19" viewBox="0 0 55 19" fill="none" xmlns="http://www.w3.org/2000/svg">
<path d="M9.73964 4.10913C9.50504 4.10913 9.26932 4.19636 9.09033 4.37302L4.54519 8.85913C4.37931 9.02286 4.27783 9.25016 4.27783 9.5C4.27783 9.74985 4.37931 9.97715 4.54519 10.1409L9.09033 14.627C9.26932 14.8037 9.50504 14.8909 9.73964 14.8909C9.97423 14.8909 10.1909 14.8037 10.3698 14.627C10.5488 14.4503 10.6563 14.2177 10.6563 13.9861C10.6563 13.7546 10.5483 13.5225 10.3698 13.3452L7.40978 10.4048H47.5903L44.6303 13.3452C44.4519 13.5225 44.3438 13.7546 44.3438 13.9861C44.3438 14.2177 44.4513 14.4503 44.6303 14.627C44.8093 14.8037 45.0259 14.8909 45.2605 14.8909C45.4951 14.8909 45.7308 14.8037 45.9098 14.627L50.4549 10.1409C50.6208 9.97715 50.7223 9.74985 50.7223 9.5C50.7223 9.25016 50.6208 9.02286 50.4549 8.85913L45.9098 4.37302C45.7308 4.19636 45.4951 4.10913 45.2605 4.10913C45.0259 4.10913 44.8093 4.19635 44.6303 4.37302C44.4513 4.54969 44.3438 4.78234 44.3438 5.01389C44.3438 5.24544 44.5027 5.43896 44.6303 5.65477L47.5903 8.59524H7.40978L10.3698 5.65477C10.5483 5.47753 10.6563 5.24544 10.6563 5.01389C10.6563 4.78234 10.5488 4.54969 10.3698 4.37302C10.1909 4.19635 9.97423 4.10913 9.73964 4.10913Z" fill="#C4C4C4"/>
<path d="M1.83333 0.904762C1.83333 0.40508 1.42293 0 0.916667 0C0.410406 0 0 0.40508 0 0.904762V18.0952C0 18.5949 0.410406 19 0.916667 19C1.42293 19 1.83333 18.5949 1.83333 18.0952V0.904762Z" fill="#C4C4C4"/>
<path d="M55.0001 0.904762C55.0001 0.40508 54.5897 0 54.0834 0C53.5772 0 53.1667 0.40508 53.1667 0.904762V18.0952C53.1667 18.5949 53.5772 19 54.0834 19C54.5897 19 55.0001 18.5949 55.0001 18.0952V0.904762Z" fill="#C4C4C4"/>
</svg>
